<?xml version="1.0" encoding="UTF-8"?>
<svg id="Layer_1" data-name="Layer 1" xmlns="http://www.w3.org/2000/svg" viewBox="0 0 48 48">
  <path d="M27.3,19.24c-3.63-1.35-5.61-2.38-5.61-4.03,0-1.39,1.14-2.18,3.18-2.18,3.72,0,7.55,1.43,10.18,2.73l1.49-9.18c-2.09-1-6.36-2.63-12.26-2.63-4.18,0-7.65,1.09-10.13,3.13-2.58,2.13-3.92,5.21-3.92,8.94,0,6.75,4.13,9.63,10.83,12.07,4.32,1.54,5.76,2.63,5.76,4.32s-1.41,2.58-3.94,2.58c-3.13,0-8.3-1.54-11.69-3.53l-1.51,9.29c2.91,1.64,8.28,3.32,13.84,3.32,4.41,0,8.1-1.04,10.58-3.03,2.78-2.18,4.22-5.41,4.22-9.58,0-6.9-4.22-9.78-11.02-12.21h0,0Z"/>
</svg>