<?xml version="1.0" encoding="UTF-8"?>
<svg id="Layer_1" data-name="Layer 1" xmlns="http://www.w3.org/2000/svg" viewBox="0 0 48 48">
  <path d="M2.7,23.36l-1.14-1.17s-.06-.08-.09-.11c-.21-.14-.47-.11-.65.06l-.05.05c-.16.21-.11.52.11.68l1.12,1.15c1.72,1.74,4.03,2.75,6.49,2.86v11.19c0,.27.22.49.49.49h37.84c.27,0,.49-.22.49-.49v-21.34c0-.27-.22-.49-.49-.49h-22.12l-4.38-4.37c-1.53-1.57-3.64-2.44-5.82-2.42H1.22v-.02c-.27,0-.49.22-.49.49,0,.03,0,.06.02.09v1.39h12.78c2.06-.02,4.03.81,5.51,2.25l2.63,2.64h-5.36s-.11.02-.16.05h-.06l-.09.06-.03.03s-.06.08-.09.13c-.02.06-.03.09-.03.16v.22l.09.14,2.56,2.55,1.15,1.15c.3.32.47.74.49,1.2,0,.38-.11.73-.33,1.01-.59.25-1.49.35-2.56-.46-.68-.51-1.6-1.38-2.5-2.29-1.68-1.69-3.32-3.53-3.32-3.53h-2.07c-.97-.19-2.18-.7-3.37-1.91-.17-.35-.3-.71-.38-1.11-.08-.19-.27-.3-.47-.3-.08,0-.17.03-.24.09-.13.06-.22.19-.24.35v.06c.08.35.17.68.32,1,0,1.63,1,3.13,2.58,3.75v7.15c-1.82-.27-3.51-1.14-4.83-2.45h0ZM15.65,23.6c.73.73,1.72,1.14,2.75,1.14,1.5-.02,2.71-1.22,2.71-2.72,0-.71-.27-1.39-.78-1.9h20.22c.22,1.49,1.39,2.66,2.88,2.88v8.8c-1.49.22-2.66,1.39-2.88,2.88H15.23c-.22-1.49-1.39-2.66-2.88-2.88v-8.81c.68-.09,1.31-.4,1.8-.87l1.49,1.49ZM9.46,26.78h.02v-8.21c.35.06.7.09,1.06.09h.17l2.8,2.77c-.44.41-1.03.62-1.61.62-.27,0-.49.22-.49.51v9.68c0,.28.22.51.49.51,1.33,0,2.42,1.08,2.42,2.42,0,.27.22.49.49.49h26.2c.27,0,.49-.22.49-.49,0-1.34,1.08-2.42,2.42-2.42.27,0,.49-.22.49-.51v-9.67c0-.27-.22-.49-.49-.49-1.34,0-2.42-1.09-2.42-2.44,0-.27-.22-.49-.49-.49h-21.66l-1.93-1.93.02-.02h27.56c.24.25.38.59.38.97v16.99c0,.81-.65,1.46-1.46,1.46H10.44c-.38,0-.73-.14-.98-.38v-9.46Z"/>
  <path d="M27.91,33.22c3.21,0,5.82-2.59,5.82-5.82s-2.61-5.82-5.82-5.82c-3.21.02-5.82,2.61-5.82,5.82s2.61,5.82,5.82,5.82ZM26.37,28.91h1.99c.32,0,.57-.25.57-.59s-.25-.57-.57-.57h-.95l-.03.02c-.68-.03-1.23-.59-1.27-1.27-.03-.73.52-1.36,1.27-1.39h.09v-.78c0-.22.17-.4.38-.4.22,0,.4.17.4.4v.78h1.15c.21,0,.38.17.38.38,0,.22-.17.4-.38.4h-1.99c-.28.02-.51.24-.52.52-.03.32.21.59.52.62h.98s.09-.02.14,0c.73.03,1.3.66,1.25,1.39-.03.74-.66,1.3-1.39,1.27h-.09v.78c0,.21-.17.38-.4.38-.21,0-.38-.17-.38-.38v-.78h-1.15c-.22,0-.4-.17-.4-.4,0-.21.17-.38.4-.38h0Z"/>
</svg>